<svg width="60" height="61" viewBox="0 0 60 61" fill="none" xmlns="http://www.w3.org/2000/svg">
<rect y="0.835167" width="60" height="59.3407" rx="11" fill="black"/>
<path d="M12.1836 30.1632L16.6367 21.5968H19.1914L13.3086 32.2961V38.6593H11.0586V32.2961L5.17578 21.5968H7.75391L12.1836 30.1632ZM23.6445 31.9797V38.6593H21.3945V21.5968H27.6875C29.5547 21.5968 31.0156 22.0734 32.0703 23.0265C33.1328 23.9797 33.6641 25.2414 33.6641 26.8117C33.6641 28.4679 33.1445 29.7453 32.1055 30.6437C31.0742 31.5343 29.5938 31.9797 27.6641 31.9797H23.6445ZM23.6445 30.1398H27.6875C28.8906 30.1398 29.8125 29.8586 30.4531 29.2961C31.0938 28.7257 31.4141 27.9054 31.4141 26.8351C31.4141 25.8195 31.0938 25.007 30.4531 24.3976C29.8125 23.7882 28.9336 23.4718 27.8164 23.4484H23.6445V30.1398ZM39.4414 21.5968L45.0195 35.5187L50.5977 21.5968H53.5156V38.6593H51.2656V32.0148L51.4766 24.8429L45.875 38.6593H44.1523L38.5625 24.8781L38.7852 32.0148V38.6593H36.5352V21.5968H39.4414Z" fill="white"/>
<path d="M12.1836 30.1632L10.4071 31.0819L12.1789 34.5084L13.9581 31.0857L12.1836 30.1632ZM16.6367 21.5968V19.5968H15.4223L14.8622 20.6744L16.6367 21.5968ZM19.1914 21.5968L20.944 22.5605L22.5735 19.5968H19.1914V21.5968ZM13.3086 32.2961L11.556 31.3324L11.3086 31.7825V32.2961H13.3086ZM13.3086 38.6593V40.6593H15.3086V38.6593H13.3086ZM11.0586 38.6593H9.05859V40.6593H11.0586V38.6593ZM11.0586 32.2961H13.0586V31.7825L12.8111 31.3324L11.0586 32.2961ZM5.17578 21.5968V19.5968H1.79373L3.42323 22.5605L5.17578 21.5968ZM7.75391 21.5968L9.53044 20.6782L8.97128 19.5968H7.75391V21.5968ZM13.9581 31.0857L18.4113 22.5193L14.8622 20.6744L10.409 29.2408L13.9581 31.0857ZM16.6367 23.5968H19.1914V19.5968H16.6367V23.5968ZM17.4389 20.6332L11.556 31.3324L15.0611 33.2597L20.944 22.5605L17.4389 20.6332ZM11.3086 32.2961V38.6593H15.3086V32.2961H11.3086ZM13.3086 36.6593H11.0586V40.6593H13.3086V36.6593ZM13.0586 38.6593V32.2961H9.05859V38.6593H13.0586ZM12.8111 31.3324L6.92833 20.6332L3.42323 22.5605L9.30604 33.2597L12.8111 31.3324ZM5.17578 23.5968H7.75391V19.5968H5.17578V23.5968ZM5.97737 22.5155L10.4071 31.0819L13.9601 29.2446L9.53044 20.6782L5.97737 22.5155ZM23.6445 31.9797V29.9797H21.6445V31.9797H23.6445ZM23.6445 38.6593V40.6593H25.6445V38.6593H23.6445ZM21.3945 38.6593H19.3945V40.6593H21.3945V38.6593ZM21.3945 21.5968V19.5968H19.3945V21.5968H21.3945ZM32.0703 23.0265L30.7293 24.5104L30.7348 24.5153L32.0703 23.0265ZM32.1055 30.6437L33.4127 32.1574L33.4136 32.1566L32.1055 30.6437ZM23.6445 30.1398H21.6445V32.1398H23.6445V30.1398ZM30.4531 29.2961L31.7728 30.799L31.783 30.7899L30.4531 29.2961ZM27.8164 23.4484L27.8584 21.4488L27.8374 21.4484H27.8164V23.4484ZM23.6445 23.4484V21.4484H21.6445V23.4484H23.6445ZM21.6445 31.9797V38.6593H25.6445V31.9797H21.6445ZM23.6445 36.6593H21.3945V40.6593H23.6445V36.6593ZM23.3945 38.6593V21.5968H19.3945V38.6593H23.3945ZM21.3945 23.5968H27.6875V19.5968H21.3945V23.5968ZM27.6875 23.5968C29.2181 23.5968 30.1452 23.9825 30.7293 24.5104L33.4113 21.5427C31.886 20.1643 29.8913 19.5968 27.6875 19.5968V23.5968ZM30.7348 24.5153C31.3293 25.0486 31.6641 25.7459 31.6641 26.8117H35.6641C35.6641 24.7369 34.9364 22.9108 33.4058 21.5378L30.7348 24.5153ZM31.6641 26.8117C31.6641 28.0179 31.3069 28.6902 30.7973 29.1308L33.4136 32.1566C34.9822 30.8003 35.6641 28.918 35.6641 26.8117H31.6641ZM30.7982 29.1301C30.2561 29.5983 29.3114 29.9797 27.6641 29.9797V33.9797C29.8761 33.9797 31.8923 33.4704 33.4127 32.1574L30.7982 29.1301ZM27.6641 29.9797H23.6445V33.9797H27.6641V29.9797ZM23.6445 32.1398H27.6875V28.1398H23.6445V32.1398ZM27.6875 32.1398C29.178 32.1398 30.6416 31.7921 31.7727 30.7989L29.1335 27.7932C28.9834 27.925 28.6033 28.1398 27.6875 28.1398V32.1398ZM31.783 30.7899C32.9518 29.7493 33.4141 28.3238 33.4141 26.8351H29.4141C29.4141 27.4871 29.2357 27.7022 29.1233 27.8022L31.783 30.7899ZM33.4141 26.8351C33.4141 25.3608 32.9293 23.9927 31.8316 22.9485L29.0747 25.8467C29.2582 26.0213 29.4141 26.2782 29.4141 26.8351H33.4141ZM31.8316 22.9485C30.7416 21.9117 29.3376 21.4799 27.8584 21.4488L27.7745 25.448C28.5296 25.4638 28.8834 25.6648 29.0747 25.8467L31.8316 22.9485ZM27.8164 21.4484H23.6445V25.4484H27.8164V21.4484ZM21.6445 23.4484V30.1398H25.6445V23.4484H21.6445ZM39.4414 21.5968L41.2979 20.853L40.7946 19.5968H39.4414V21.5968ZM45.0195 35.5187L43.163 36.2626L45.0195 40.8961L46.8761 36.2626L45.0195 35.5187ZM50.5977 21.5968V19.5968H49.2444L48.7411 20.853L50.5977 21.5968ZM53.5156 21.5968H55.5156V19.5968H53.5156V21.5968ZM53.5156 38.6593V40.6593H55.5156V38.6593H53.5156ZM51.2656 38.6593H49.2656V40.6593H51.2656V38.6593ZM51.2656 32.0148L49.2665 31.956L49.2656 31.9854V32.0148H51.2656ZM51.4766 24.8429L53.4757 24.9017L49.6231 24.0915L51.4766 24.8429ZM45.875 38.6593V40.6593H47.2223L47.7285 39.4108L45.875 38.6593ZM44.1523 38.6593L42.299 39.4111L42.8053 40.6593H44.1523V38.6593ZM38.5625 24.8781L40.4158 24.1264L36.5635 24.9405L38.5625 24.8781ZM38.7852 32.0148H40.7852V31.9836L40.7842 31.9524L38.7852 32.0148ZM38.7852 38.6593V40.6593H40.7852V38.6593H38.7852ZM36.5352 38.6593H34.5352V40.6593H36.5352V38.6593ZM36.5352 21.5968V19.5968H34.5352V21.5968H36.5352ZM37.5849 22.3407L43.163 36.2626L46.8761 34.7749L41.2979 20.853L37.5849 22.3407ZM46.8761 36.2626L52.4542 22.3407L48.7411 20.853L43.163 34.7749L46.8761 36.2626ZM50.5977 23.5968H53.5156V19.5968H50.5977V23.5968ZM51.5156 21.5968V38.6593H55.5156V21.5968H51.5156ZM53.5156 36.6593H51.2656V40.6593H53.5156V36.6593ZM53.2656 38.6593V32.0148H49.2656V38.6593H53.2656ZM53.2648 32.0736L53.4757 24.9017L49.4774 24.7841L49.2665 31.956L53.2648 32.0736ZM49.6231 24.0915L44.0215 37.9079L47.7285 39.4108L53.33 25.5944L49.6231 24.0915ZM45.875 36.6593H44.1523V40.6593H45.875V36.6593ZM46.0057 37.9076L40.4158 24.1264L36.7092 25.6298L42.299 39.4111L46.0057 37.9076ZM36.5635 24.9405L36.7861 32.0772L40.7842 31.9524L40.5615 24.8157L36.5635 24.9405ZM36.7852 32.0148V38.6593H40.7852V32.0148H36.7852ZM38.7852 36.6593H36.5352V40.6593H38.7852V36.6593ZM38.5352 38.6593V21.5968H34.5352V38.6593H38.5352ZM36.5352 23.5968H39.4414V19.5968H36.5352V23.5968Z" fill="#2A6D6D"/>
</svg>
